<?xml version="1.0" encoding="utf-8"?>
<!-- Generator: Adobe Illustrator 16.0.0, SVG Export Plug-In . SVG Version: 6.00 Build 0)  -->
<!DOCTYPE svg PUBLIC "-//W3C//DTD SVG 1.1//EN" "http://www.w3.org/Graphics/SVG/1.1/DTD/svg11.dtd">
<svg version="1.1" id="Layer_1" xmlns="http://www.w3.org/2000/svg" xmlns:xlink="http://www.w3.org/1999/xlink" x="0px" y="0px"
	 width="1280px" height="800px" viewBox="0 0 1280 800" enable-background="new 0 0 1280 800" xml:space="preserve">
<path opacity="0.8" fill="#9807B8" d="M1329.356,368.052c0,0-72.397,235.847-293.822,231.788
	c-221.424-4.059-273.273,282.677-529.827,310.488l792.711-113.49l105.513-38.998l155.644-34.159L1329.356,368.052z"/>
<rect x="1414.758" y="258" fill="#BE2EDD" width="87" height="101"/>
<rect x="1414.758" y="399" fill="#9807B8" width="87" height="101"/>
<rect x="1414.758" y="527" fill="#8800A6" width="87" height="101"/>
<path opacity="0.8" fill="#8800A6" d="M1308.699,490.434c0,0-129.489,209.996-342.746,150.274
	c-213.257-59.721-335.683,204.698-590.966,166.968l795.729,89.913l111.935-11.154l159.229,6.162L1308.699,490.434z"/>
</svg>
